<?xml version="1.0" encoding="UTF-8"?>
<!DOCTYPE svg PUBLIC "-//W3C//DTD SVG 1.1//EN" "http://www.w3.org/Graphics/SVG/1.1/DTD/svg11.dtd">
<svg xmlns="http://www.w3.org/2000/svg" version="1.1" width="512px" height="512px" style="shape-rendering:geometricPrecision; text-rendering:geometricPrecision; image-rendering:optimizeQuality; fill-rule:evenodd; clip-rule:evenodd" xmlns:xlink="http://www.w3.org/1999/xlink">
<g><path style="opacity:0.987" fill="#020202" d="M 209.5,-0.5 C 220.833,-0.5 232.167,-0.5 243.5,-0.5C 251.12,1.59779 257.287,5.93113 262,12.5C 265.359,19.4702 267.859,26.6369 269.5,34C 276.5,34.3333 283.5,34.6667 290.5,35C 304.093,37.4283 312.76,45.2617 316.5,58.5C 343.835,58.3334 371.169,58.5 398.5,59C 408.231,61.064 414.397,66.8974 417,76.5C 417.667,100.5 417.667,124.5 417,148.5C 415.491,150.919 413.325,151.919 410.5,151.5C 406.91,151.456 404.41,149.789 403,146.5C 402.667,124.167 402.333,101.833 402,79.5C 400.841,76.5066 398.675,74.8399 395.5,74.5C 391.03,73.5139 386.363,73.1805 381.5,73.5C 381.5,112.167 381.5,150.833 381.5,189.5C 380.388,194.932 377.054,196.932 371.5,195.5C 369.496,194.327 367.996,192.66 367,190.5C 366.5,151.835 366.333,113.168 366.5,74.5C 350.167,74.5 333.833,74.5 317.5,74.5C 318.234,85.5601 313.568,93.0601 303.5,97C 251.833,97.6667 200.167,97.6667 148.5,97C 139.401,92.3053 135.401,84.8053 136.5,74.5C 120.008,73.5035 103.342,73.1702 86.5,73.5C 86.1671,200.668 86.5004,327.668 87.5,454.5C 87.6107,455.117 87.944,455.617 88.5,456C 124.838,456.833 161.171,456.667 197.5,455.5C 206,438.5 214.5,421.5 223,404.5C 273.508,341.47 324.008,278.47 374.5,215.5C 386.875,200.459 398.875,185.125 410.5,169.5C 415.62,162.877 421.287,156.711 427.5,151C 442.316,143.567 455.816,145.401 468,156.5C 477.127,169.033 477.794,182.033 470,195.5C 449.923,220.066 430.09,244.732 410.5,269.5C 397.819,284.184 385.485,299.184 373.5,314.5C 339.834,356.337 306.334,398.337 273,440.5C 267.747,445.531 262.247,450.197 256.5,454.5C 255.957,454.56 255.624,454.893 255.5,455.5C 291.998,456.83 328.331,456.83 364.5,455.5C 365.117,455.389 365.617,455.056 366,454.5C 366.333,415.833 366.667,377.167 367,338.5C 368.41,335.211 370.91,333.544 374.5,333.5C 377.263,333.744 379.429,335.077 381,337.5C 381.667,377.833 381.667,418.167 381,458.5C 379.053,462.276 376.553,465.61 373.5,468.5C 370.946,469.606 368.279,470.439 365.5,471C 322.167,471.333 278.833,471.667 235.5,472C 230.833,475.667 226.167,479.333 221.5,483C 208.201,489.349 198.868,485.682 193.5,472C 157.833,471.667 122.167,471.333 86.5,471C 79,468.833 74.1667,464 72,456.5C 71.5,329.167 71.3333,201.834 71.5,74.5C 66.1563,74.334 60.8229,74.5006 55.5,75C 53.6217,76.5429 52.1217,78.3762 51,80.5C 50.3333,216.833 50.3333,353.167 51,489.5C 51.786,492.583 53.6193,494.749 56.5,496C 161.499,496.5 266.499,496.667 371.5,496.5C 380.582,496.914 389.582,496.414 398.5,495C 400.487,493.681 401.654,491.848 402,489.5C 402.333,424.167 402.667,358.833 403,293.5C 403.374,292.584 403.874,291.75 404.5,291C 406.611,290.155 408.611,289.322 410.5,288.5C 413.287,288.78 415.453,290.113 417,292.5C 417.667,359.833 417.667,427.167 417,494.5C 413.981,502.684 408.481,508.351 400.5,511.5C 284.5,511.5 168.5,511.5 52.5,511.5C 43.6496,508.145 38.1496,501.812 36,492.5C 35.3333,354.167 35.3333,215.833 36,77.5C 38.942,67.5574 45.442,61.3908 55.5,59C 82.5,58.6667 109.5,58.3333 136.5,58C 140.629,45.2597 149.296,37.5931 162.5,35C 169.883,34.7998 177.216,34.2998 184.5,33.5C 185.571,16.6439 193.905,5.31054 209.5,-0.5 Z"/></g>
<g><path style="opacity:1" fill="#f77b40" d="M 223.5,14.5 C 223.334,24.8387 223.5,35.172 224,45.5C 225.068,50.2353 227.901,53.4019 232.5,55C 240.167,55.3333 247.833,55.6667 255.5,56C 268.32,60.127 274.32,68.9603 273.5,82.5C 282.167,82.5 290.833,82.5 299.5,82.5C 251.002,83.665 202.335,83.8316 153.5,83C 153,82.5 152.5,82 152,81.5C 151.104,73.7536 151.437,66.087 153,58.5C 155.167,56.3333 157.333,54.1667 159.5,52C 167.731,50.7271 176.064,50.0605 184.5,50C 196.843,46.6352 202.677,38.4685 202,25.5C 206.323,16.421 213.49,12.7543 223.5,14.5 Z"/></g>
<g><path style="opacity:1" fill="#f86830" d="M 223.5,14.5 C 229.176,14.3339 234.843,14.5006 240.5,15C 248.873,18.368 252.706,24.5347 252,33.5C 254.068,41.9013 259.234,47.4013 267.5,50C 275.167,50.3333 282.833,50.6667 290.5,51C 296.333,52.8333 300.167,56.6667 302,62.5C 302.667,68.5 302.667,74.5 302,80.5C 301.292,81.3805 300.458,82.0472 299.5,82.5C 290.833,82.5 282.167,82.5 273.5,82.5C 274.32,68.9603 268.32,60.127 255.5,56C 247.833,55.6667 240.167,55.3333 232.5,55C 227.901,53.4019 225.068,50.2353 224,45.5C 223.5,35.172 223.334,24.8387 223.5,14.5 Z"/></g>
<g><path style="opacity:1" fill="#0d7ea9" d="M 373.5,468.5 C 374.656,475.989 374.822,483.655 374,491.5C 373.153,493.193 372.32,494.86 371.5,496.5C 266.499,496.667 161.499,496.5 56.5,496C 53.6193,494.749 51.786,492.583 51,489.5C 50.3333,353.167 50.3333,216.833 51,80.5C 52.1217,78.3762 53.6217,76.5429 55.5,75C 60.8229,74.5006 66.1563,74.334 71.5,74.5C 71.3333,201.834 71.5,329.167 72,456.5C 74.1667,464 79,468.833 86.5,471C 122.167,471.333 157.833,471.667 193.5,472C 198.868,485.682 208.201,489.349 221.5,483C 226.167,479.333 230.833,475.667 235.5,472C 278.833,471.667 322.167,471.333 365.5,471C 368.279,470.439 370.946,469.606 373.5,468.5 Z"/></g>
<g><path style="opacity:1" fill="#b9b4b4" d="M 136.5,74.5 C 120.167,74.5 103.833,74.5 87.5,74.5C 87.5,201.167 87.5,327.833 87.5,454.5C 86.5004,327.668 86.1671,200.668 86.5,73.5C 103.342,73.1702 120.008,73.5035 136.5,74.5 Z"/></g>
<g><path style="opacity:1" fill="#f5eeee" d="M 136.5,74.5 C 135.401,84.8053 139.401,92.3053 148.5,97C 200.167,97.6667 251.833,97.6667 303.5,97C 313.568,93.0601 318.234,85.5601 317.5,74.5C 333.833,74.5 350.167,74.5 366.5,74.5C 366.333,113.168 366.5,151.835 367,190.5C 367.996,192.66 369.496,194.327 371.5,195.5C 372.209,196.404 373.209,196.737 374.5,196.5C 374.5,202.833 374.5,209.167 374.5,215.5C 324.008,278.47 273.508,341.47 223,404.5C 214.5,421.5 206,438.5 197.5,455.5C 161.171,456.667 124.838,456.833 88.5,456C 87.944,455.617 87.6107,455.117 87.5,454.5C 87.5,327.833 87.5,201.167 87.5,74.5C 103.833,74.5 120.167,74.5 136.5,74.5 Z"/></g>
<g><path style="opacity:1" fill="#03506a" d="M 395.5,74.5 C 391.167,74.5 386.833,74.5 382.5,74.5C 382.832,113.004 382.499,151.337 381.5,189.5C 381.5,150.833 381.5,112.167 381.5,73.5C 386.363,73.1805 391.03,73.5139 395.5,74.5 Z"/></g>
<g><path style="opacity:1" fill="#057094" d="M 395.5,74.5 C 398.675,74.8399 400.841,76.5066 402,79.5C 402.333,101.833 402.667,124.167 403,146.5C 404.41,149.789 406.91,151.456 410.5,151.5C 410.5,157.5 410.5,163.5 410.5,169.5C 398.875,185.125 386.875,200.459 374.5,215.5C 374.5,209.167 374.5,202.833 374.5,196.5C 373.209,196.737 372.209,196.404 371.5,195.5C 377.054,196.932 380.388,194.932 381.5,189.5C 382.499,151.337 382.832,113.004 382.5,74.5C 386.833,74.5 391.167,74.5 395.5,74.5 Z"/></g>
<g><path style="opacity:1" fill="#050505" d="M 173.5,137.5 C 181.794,136.036 185.294,139.37 184,147.5C 174.778,161.443 164.945,174.943 154.5,188C 149.806,189.932 145.139,189.932 140.5,188C 133.572,181.95 126.739,175.784 120,169.5C 118.995,160.506 122.828,157.339 131.5,160C 136.678,164.513 141.845,169.013 147,173.5C 155.639,161.36 164.473,149.36 173.5,137.5 Z"/></g>
<g><path style="opacity:1" fill="#080808" d="M 218.5,140.5 C 255.168,140.333 291.835,140.5 328.5,141C 335.933,145.337 336.266,150.003 329.5,155C 292.167,155.667 254.833,155.667 217.5,155C 213.788,152.487 212.622,148.987 214,144.5C 215.397,142.93 216.897,141.596 218.5,140.5 Z"/></g>
<g><path style="opacity:1" fill="#fbc0a8" d="M 440.5,161.5 C 455.009,161.195 461.175,168.195 459,182.5C 451.395,194.038 443.062,205.038 434,215.5C 425.56,209.361 417.393,202.861 409.5,196C 417,186.5 424.5,177 432,167.5C 434.637,165.109 437.47,163.109 440.5,161.5 Z"/></g>
<g><path style="opacity:1" fill="#080808" d="M 217.5,174.5 C 254.835,174.333 292.168,174.5 329.5,175C 336.266,179.997 335.933,184.663 328.5,189C 291.833,189.667 255.167,189.667 218.5,189C 213.465,185.987 212.298,181.82 215,176.5C 215.995,175.934 216.828,175.267 217.5,174.5 Z"/></g>
<g><path style="opacity:1" fill="#f76730" d="M 398.5,208.5 C 400.308,208.491 401.975,208.991 403.5,210C 409.833,215.167 416.167,220.333 422.5,225.5C 423.614,226.723 423.781,228.056 423,229.5C 369.62,295.211 316.62,361.211 264,427.5C 255.924,420.88 247.758,414.38 239.5,408C 292.737,341.606 345.737,275.106 398.5,208.5 Z"/></g>
<g><path style="opacity:1" fill="#060606" d="M 174.5,246.5 C 181.706,246.202 184.873,249.535 184,256.5C 175.115,270.438 165.615,283.938 155.5,297C 151.738,299.156 147.738,299.823 143.5,299C 135.418,293.589 127.918,287.422 121,280.5C 117.675,271.319 120.842,267.485 130.5,269C 136,273.833 141.5,278.667 147,283.5C 155,272.167 163,260.833 171,249.5C 172.145,248.364 173.312,247.364 174.5,246.5 Z"/></g>
<g><path style="opacity:1" fill="#000000" d="M 217.5,248.5 C 255.168,248.333 292.835,248.5 330.5,249C 335.833,253.333 335.833,257.667 330.5,262C 292.833,262.667 255.167,262.667 217.5,262C 213.304,259.019 212.471,255.186 215,250.5C 215.995,249.934 216.828,249.267 217.5,248.5 Z"/></g>
<g><path style="opacity:1" fill="#056f93" d="M 410.5,269.5 C 410.5,275.833 410.5,282.167 410.5,288.5C 408.611,289.322 406.611,290.155 404.5,291C 403.874,291.75 403.374,292.584 403,293.5C 402.667,358.833 402.333,424.167 402,489.5C 401.654,491.848 400.487,493.681 398.5,495C 389.582,496.414 380.582,496.914 371.5,496.5C 372.32,494.86 373.153,493.193 374,491.5C 374.822,483.655 374.656,475.989 373.5,468.5C 376.553,465.61 379.053,462.276 381,458.5C 381.667,418.167 381.667,377.833 381,337.5C 379.429,335.077 377.263,333.744 374.5,333.5C 374.823,326.978 374.49,320.645 373.5,314.5C 385.485,299.184 397.819,284.184 410.5,269.5 Z"/></g>
<g><path style="opacity:1" fill="#060505" d="M 217.5,281.5 C 237.169,281.333 256.836,281.5 276.5,282C 283.249,287.047 282.916,291.714 275.5,296C 256.5,296.667 237.5,296.667 218.5,296C 213.857,293.928 212.357,290.428 214,285.5C 215.376,284.295 216.542,282.962 217.5,281.5 Z"/></g>
<g><path style="opacity:1" fill="#f5efef" d="M 373.5,314.5 C 374.49,320.645 374.823,326.978 374.5,333.5C 370.91,333.544 368.41,335.211 367,338.5C 366.667,377.167 366.333,415.833 366,454.5C 365.617,455.056 365.117,455.389 364.5,455.5C 328.329,455.832 292.329,455.498 256.5,454.5C 262.247,450.197 267.747,445.531 273,440.5C 306.334,398.337 339.834,356.337 373.5,314.5 Z"/></g>
<g><path style="opacity:1" fill="#050505" d="M 174.5,354.5 C 181.706,354.202 184.873,357.535 184,364.5C 175.115,378.438 165.615,391.938 155.5,405C 151.782,407.298 147.782,407.965 143.5,407C 135.418,401.589 127.918,395.422 121,388.5C 117.778,382.091 119.611,378.091 126.5,376.5C 128.299,376.577 129.966,377.077 131.5,378C 136.667,382.5 141.833,387 147,391.5C 155.492,380.517 163.492,369.184 171,357.5C 172.145,356.364 173.312,355.364 174.5,354.5 Z"/></g>
<g><path style="opacity:1" fill="#53767e" d="M 230.5,421.5 C 231.552,421.351 232.552,421.517 233.5,422C 240.248,427.038 246.581,432.538 252.5,438.5C 240.021,448.478 227.688,458.645 215.5,469C 210.338,473.065 208.171,471.898 209,465.5C 216.45,450.934 223.617,436.267 230.5,421.5 Z"/></g>
<g><path style="opacity:1" fill="#837f7f" d="M 256.5,454.5 C 292.329,455.498 328.329,455.832 364.5,455.5C 328.331,456.83 291.998,456.83 255.5,455.5C 255.624,454.893 255.957,454.56 256.5,454.5 Z"/></g>
</svg>
